<?xml version="1.0" encoding="UTF-8"?>
<svg id="Layer_1" xmlns="http://www.w3.org/2000/svg" version="1.1" viewBox="0 0 52.28 18">
  <!-- Generator: Adobe Illustrator 29.6.1, SVG Export Plug-In . SVG Version: 2.1.1 Build 9)  -->
  <defs>
    <style>
      .st0 {
        fill: #8400ff;
      }

      .st1 {
        fill: #ffd500;
      }
    </style>
  </defs>
  <g>
    <path class="st0" d="M46.7,8.49v6.53c0,.44-.35.79-.79.79h-2.54c-.44,0-.79-.35-.79-.79v-6.56c0-1.16-.95-2.13-2.1-2.11-1.06.01-1.93.82-2.04,1.85,0,.08,0,.16,0,.23l-.02,6.6c0,.44-.36.79-.79.79h-2.54c-.44,0-.79-.35-.79-.79v-6.6c0-.08,0-.16,0-.23-.12-1.03-.98-1.83-2.04-1.85-1.16-.01-2.1.96-2.1,2.11v6.56c0,.44-.35.79-.79.79h-2.54c-.38,0-.69-.26-.77-.61,1.3-1.73,2.06-3.87,2.06-6.2,0-1.49-.32-2.92-.89-4.2,1.14-1.58,2.99-2.61,5.07-2.59,1.56.01,2.99.61,4.07,1.58,1.08-.97,2.51-1.57,4.07-1.58,3.45-.03,6.26,2.82,6.26,6.27Z"/>
    <path class="st0" d="M8.37,3.02c0-.44-.36-.8-.8-.8h-2.57c-.44,0-.8.36-.8.8v7.34c-.05,1.11-.97,2-2.09,2h0s-1.15,0-1.15,0c-.53,0-.95.43-.95.95v2.31c0,.53.43.95.95.95h1.15c.98,0,1.91-.22,2.73-.63,1.47-.71,2.62-1.98,3.17-3.54-.23-.67-.4-1.37-.49-2.1-.05-.42-.08-.86-.08-1.3,0-1.53.33-2.99.93-4.3v-1.69Z"/>
    <rect class="st0" x="48.03" y="5.48" width="4.13" height="10.33" rx=".79" ry=".79"/>
    <circle class="st0" cx="50.09" cy="2.22" r="2.18"/>
  </g>
  <circle class="st1" cx="17.77" cy="9.01" r="8.19"/>
  <path class="st0" d="M17.77,17.96c-1.21,0-2.38-.24-3.49-.7-1.07-.45-2.02-1.1-2.85-1.92-.82-.82-1.47-1.78-1.92-2.85-.47-1.1-.7-2.28-.7-3.49s.24-2.38.7-3.49c.45-1.07,1.1-2.02,1.92-2.85.82-.82,1.78-1.47,2.85-1.92,1.1-.47,2.28-.7,3.49-.7s2.38.24,3.49.7c1.07.45,2.02,1.1,2.85,1.92.82.82,1.47,1.78,1.92,2.85.47,1.1.7,2.28.7,3.49s-.24,2.38-.7,3.49c-.45,1.07-1.1,2.02-1.92,2.85-.82.82-1.78,1.47-2.85,1.92-1.1.47-2.28.7-3.49.7ZM17.77,1.43c-1.02,0-2.02.2-2.95.6-.9.38-1.71.93-2.41,1.62s-1.24,1.51-1.62,2.41c-.4.93-.6,1.93-.6,2.95s.2,2.02.6,2.95c.38.9.93,1.71,1.62,2.41.7.7,1.51,1.24,2.41,1.62.93.4,1.93.6,2.95.6s2.02-.2,2.95-.6c.9-.38,1.71-.93,2.41-1.62.7-.7,1.24-1.51,1.62-2.41.4-.93.6-1.93.6-2.95s-.2-2.02-.6-2.95c-.38-.9-.93-1.71-1.62-2.41s-1.51-1.24-2.41-1.62c-.93-.4-1.93-.6-2.95-.6Z"/>
  <g>
    <path class="st0" d="M17.77,13.43c-1.04,0-2.05-.33-2.92-.95-.31-.22-.38-.65-.16-.96.22-.31.65-.38.96-.16.63.45,1.37.69,2.12.69s1.49-.24,2.12-.69c.31-.22.74-.15.96.16s.15.74-.16.96c-.87.62-1.88.95-2.92.95Z"/>
    <path class="st0" d="M15.25,8.64c-.38,0-.69-.31-.69-.69v-1.41c0-.38.31-.69.69-.69s.69.31.69.69v1.41c0,.38-.31.69-.69.69Z"/>
    <path class="st0" d="M19.32,8.1c-.18,0-.36-.07-.49-.21-.27-.27-.26-.71.01-.97.04-.04.18-.17.42-.29.31-.15.66-.23,1.03-.23s.72.08,1.03.23c.24.12.38.25.42.29.27.27.28.7.01.97-.13.14-.31.21-.49.21-.17,0-.33-.06-.46-.18-.02-.02-.19-.14-.51-.14s-.48.12-.51.14c-.13.12-.3.18-.46.18ZM19.8,7.91s0,0,0,0c0,0,0,0,0,0ZM20.79,7.91h0s0,0,0,0ZM19.8,7.91s0,0,0,0c0,0,0,0,0,0ZM20.79,7.91s0,0,0,0c0,0,0,0,0,0Z"/>
  </g>
</svg>